<?xml version="1.0" encoding="UTF-8" standalone="no"?>
<svg
   xmlns:dc="http://purl.org/dc/elements/1.1/"
   xmlns:cc="http://creativecommons.org/ns#"
   xmlns:rdf="http://www.w3.org/1999/02/22-rdf-syntax-ns#"
   xmlns:svg="http://www.w3.org/2000/svg"
   xmlns="http://www.w3.org/2000/svg"
   xmlns:sodipodi="http://sodipodi.sourceforge.net/DTD/sodipodi-0.dtd"
   xmlns:inkscape="http://www.inkscape.org/namespaces/inkscape"
   id="Capa_1"
   enable-background="new 0 0 512 512"
   height="250"
   viewBox="0 0 550 250"
   width="550"
   version="1.1"
   sodipodi:docname="coollib.svg"
   inkscape:version="1.0.2 (e86c8708, 2021-01-15)">
  <metadata
     id="metadata898">
    <rdf:RDF>
      <cc:Work
         rdf:about="">
        <dc:format>image/svg+xml</dc:format>
        <dc:type
           rdf:resource="http://purl.org/dc/dcmitype/StillImage" />
        <dc:title></dc:title>
      </cc:Work>
    </rdf:RDF>
  </metadata>
  <defs
     id="defs896" />
  <sodipodi:namedview
     pagecolor="#ffffff"
     bordercolor="#666666"
     borderopacity="1"
     objecttolerance="10"
     gridtolerance="10"
     guidetolerance="10"
     inkscape:pageopacity="0"
     inkscape:pageshadow="2"
     inkscape:window-width="1053"
     inkscape:window-height="603"
     id="namedview894"
     showgrid="false"
     inkscape:zoom="0.39863122"
     inkscape:cx="327.86645"
     inkscape:cy="197.05685"
     inkscape:window-x="166"
     inkscape:window-y="109"
     inkscape:window-maximized="0"
     inkscape:current-layer="Capa_1" />
  <g
     id="g891"
     transform="translate(20.068674,-131.33033)">
    <g
       id="g861">
      <path
         d="m 169.382,163.4 h 173.236 v 22.261 H 169.382 Z"
         fill="#015382"
         id="path833" />
      <g
         id="g859">
        <g
           fill="#003f5e"
           id="g839">
          <path
             d="m 470.87,238.821 c 0,7.544 6.116,13.66 13.66,13.66 h 13.81 c 7.544,0 13.66,-6.116 13.66,-13.66 0,-7.544 -6.116,-13.66 -13.66,-13.66 h -13.81 c -7.544,0 -13.66,6.116 -13.66,13.66 z"
             id="path835" />
          <path
             d="m 0,238.821 c 0,7.544 6.116,13.66 13.66,13.66 h 13.81 c 7.544,0 13.66,-6.116 13.66,-13.66 0,-7.544 -6.116,-13.66 -13.66,-13.66 H 13.66 C 6.116,225.161 0,231.277 0,238.821 Z"
             id="path837" />
        </g>
        <g
           id="g843">
          <path
             d="m 276.941,235.619 c -6.352,-3.657 -13.594,-5.591 -20.941,-5.591 -7.348,0 -14.589,1.933 -20.941,5.591 L 223.15,214.937 c 9.969,-5.741 21.329,-8.775 32.85,-8.775 11.522,0 22.881,3.034 32.85,8.775 z"
             fill="#003f5e"
             id="path841" />
        </g>
        <g
           id="g857">
          <g
             id="g855">
            <path
               d="m 19.654,239.744 v 20.427 c 0,48.838 39.591,88.429 88.429,88.429 h 5.717 c 22.175,0 43.862,-6.543 62.258,-18.926 28.691,-19.312 65.449,-52.776 65.449,-97.47 v -8.538 c 0,-33.284 -26.982,-60.267 -60.267,-60.267 H 95.999 C 53.835,163.4 19.654,197.58 19.654,239.744 Z"
               fill="#015382"
               id="path845" />
            <path
               d="m 108.083,326.34 c -36.486,0 -66.168,-29.683 -66.168,-66.169 v -20.427 c 0,-29.822 24.262,-54.084 54.084,-54.084 h 85.242 c 20.957,0 38.005,17.049 38.005,38.006 v 8.539 c 0,34.356 -30.245,61.925 -55.618,79.003 -14.708,9.9 -31.938,15.132 -49.828,15.132 z"
               fill="#ff993a"
               id="path847" />
            <path
               d="m 219.25,223.67 v 8.53 c 0,34.36 -30.25,61.93 -55.62,79.01 -14.71,9.9 -31.94,15.13 -49.83,15.13 h -5.72 c -34.12,0 -62.29,-25.96 -65.79,-59.17 16.21,14.34 37.52,23.05 60.88,23.05 50.77,0 91.93,-41.15 91.93,-91.92 0,-3.46 -0.19,-6.88 -0.57,-10.24 14.43,5.4 24.72,19.32 24.72,35.61 z"
               fill="#f97c15"
               id="path849" />
            <path
               d="m 492.346,239.744 v 20.427 c 0,48.838 -39.591,88.429 -88.429,88.429 H 398.2 c -22.175,0 -43.862,-6.543 -62.258,-18.926 -28.691,-19.312 -65.449,-52.776 -65.449,-97.47 v -8.538 c 0,-33.284 26.982,-60.267 60.267,-60.267 h 85.242 c 42.163,0.001 76.344,34.181 76.344,76.345 z"
               fill="#015382"
               id="path851" />
            <path
               d="m 398.2,326.34 c -17.89,0 -35.121,-5.232 -49.828,-15.132 -25.373,-17.078 -55.618,-44.647 -55.618,-79.003 v -8.539 c 0,-20.957 17.049,-38.006 38.005,-38.006 h 85.242 c 29.822,0 54.084,24.262 54.084,54.084 v 20.427 c 0,36.486 -29.683,66.169 -66.168,66.169 z"
               fill="#ff993a"
               id="path853" />
          </g>
        </g>
      </g>
    </g>
    <g
       id="g871">
      <path
         d="m 96,163.4 c -42.17,0 -76.35,34.18 -76.35,76.34 v 6.52 c 0,6.15 4.985,11.135 11.135,11.135 6.15,0 11.135,-4.985 11.135,-11.135 v -6.52 c 0,-29.868 24.212,-54.08 54.08,-54.08 h 49.346 c 6.147,0 11.13,-4.983 11.13,-11.13 0,-6.147 -4.983,-11.13 -11.13,-11.13 z"
         fill="#02718c"
         id="path863" />
      <path
         d="m 49.017,212.971 c 6.538,-11.448 17.137,-20.275 29.838,-24.519 4.571,-1.527 7.604,-5.871 7.485,-10.689 -0.002,-0.076 -0.004,-0.151 -0.006,-0.227 -0.182,-7.456 -7.53,-12.543 -14.602,-10.174 -17.877,5.989 -32.799,18.411 -42.022,34.516 -3.312,5.783 -0.795,13.169 5.373,15.696 0.069,0.028 0.138,0.056 0.206,0.084 5.107,2.092 10.991,0.106 13.728,-4.687 z"
         fill="#0d8ba0"
         id="path865" />
      <path
         d="m 227.81,254.305 c -5.531,-2.832 -12.308,-0.507 -14.948,5.119 -10.216,21.773 -30.979,39.497 -49.233,51.786 -9.643,6.49 -20.37,10.967 -31.656,13.283 -5.134,1.053 -8.841,5.532 -8.841,10.773 v 0.266 c 0,6.933 6.348,12.174 13.141,10.788 14.154,-2.887 27.68,-8.498 39.786,-16.649 20.174,-13.578 44.311,-34.163 56.869,-60.726 2.546,-5.386 0.384,-11.82 -4.918,-14.536 -0.066,-0.036 -0.133,-0.07 -0.2,-0.104 z"
         fill="#02718c"
         id="path867" />
      <path
         d="m 203.524,274.815 c -6.447,8.676 -14.312,16.5 -22.484,23.351 -4.054,3.398 -5.038,9.24 -2.403,13.827 l 0.138,0.24 c 3.422,5.957 11.387,7.312 16.641,2.885 9.241,-7.788 18.32,-16.857 25.943,-27.117 3.245,-4.368 2.753,-10.462 -1.103,-14.301 -0.054,-0.054 -0.108,-0.108 -0.162,-0.162 -4.751,-4.732 -12.571,-4.105 -16.57,1.277 z"
         fill="#0d8ba0"
         id="path869" />
    </g>
    <path
       d="m 319.687,303.912 c 0.053,-0.052 0.107,-0.103 0.16,-0.155 4.371,-4.24 4.496,-11.253 0.202,-15.571 -15.258,-15.341 -27.298,-34.31 -27.298,-55.986 v -8.53 c 0,-20.992 17.018,-38.01 38.01,-38.01 h 42.183 c 6.147,0 11.13,-4.983 11.13,-11.13 0,-6.147 -4.983,-11.13 -11.13,-11.13 H 330.76 c -33.286,0 -60.27,26.984 -60.27,60.27 v 8.53 c 0,28.77 15.23,52.876 33.734,71.556 4.241,4.282 11.137,4.353 15.463,0.156 z"
       fill="#02718c"
       id="path873" />
    <path
       d="m 288.695,261.575 c 5.094,-2.162 7.818,-7.759 6.328,-13.088 -1.464,-5.237 -2.273,-10.671 -2.273,-16.287 v -8.53 c 0,-12.953 6.479,-24.391 16.373,-31.254 3.91,-2.712 5.759,-7.534 4.445,-12.107 l -0.103,-0.359 c -2.076,-7.22 -10.613,-10.234 -16.804,-5.979 -15.806,10.864 -26.171,29.07 -26.171,49.698 v 8.53 c 0,7.833 1.132,15.319 3.151,22.444 1.79,6.318 8.804,9.579 14.85,7.018 0.068,-0.028 0.136,-0.057 0.204,-0.086 z"
       fill="#0d8ba0"
       id="path875" />
    <path
       d="m 467.381,278.854 c -6.894,23.385 -26.38,41.416 -50.576,46.212 -5.245,1.04 -9.054,5.589 -9.054,10.936 0,6.973 6.346,12.287 13.19,10.952 32.454,-6.329 58.565,-30.409 67.803,-61.726 2.106,-7.14 -3.241,-14.304 -10.686,-14.304 h -0.017 c -4.915,0.001 -9.271,3.216 -10.66,7.93 z"
       fill="#02718c"
       id="path877" />
    <path
       d="m 453.745,303.617 c -4.383,5.025 -9.51,9.385 -15.209,12.902 -4.683,2.89 -6.56,8.753 -4.375,13.804 0.029,0.068 0.059,0.136 0.088,0.204 2.646,6.113 10.113,8.568 15.793,5.089 7.683,-4.706 14.591,-10.551 20.491,-17.301 4.041,-4.623 3.545,-11.654 -1.114,-15.653 -0.059,-0.051 -0.118,-0.101 -0.176,-0.151 -4.599,-3.949 -11.515,-3.461 -15.498,1.106 z"
       fill="#0d8ba0"
       id="path879" />
    <path
       d="m 470.08,239.74 v 20.43 c 0,36.49 -29.68,66.17 -66.16,66.17 h -5.72 c -17.89,0 -35.12,-5.23 -49.83,-15.13 -15.19,-10.22 -32.12,-24.21 -43.27,-41.16 14.92,17.49 37.12,28.58 61.91,28.58 44.93,0 81.35,-36.42 81.35,-81.35 0,-8.05 -1.17,-15.82 -3.35,-23.16 15.06,9.61 25.07,26.47 25.07,45.62 z"
       fill="#f97c15"
       id="path881" />
    <path
       d="m 65.125,230.818 c 4.68,0 9.036,-2.227 11.923,-5.91 4.41,-5.626 11.263,-9.248 18.951,-9.248 h 53.207 c 8.284,0 15,-6.716 15,-15 0,-8.284 -6.716,-15 -15,-15 H 96 c -17.461,0 -33.01,8.32 -42.901,21.203 -7.511,9.783 -0.308,23.955 12.026,23.955 z"
       fill="#ffaf40"
       id="path883" />
    <path
       d="M 125.046,185.66 H 109.14 c -8.284,0 -15,6.716 -15,15 0,8.284 6.716,15 15,15 h 15.906 c 8.284,0 15,-6.716 15,-15 0,-8.284 -6.715,-15 -15,-15 z"
       fill="#ffc751"
       id="path885" />
    <path
       d="m 330.76,185.66 c -20.992,0 -38.01,17.018 -38.01,38.01 v 8.53 c 0,5.498 0.776,10.822 2.184,15.956 2.595,9.467 13.599,13.762 22.007,8.698 l 0.258,-0.155 c 5.724,-3.448 8.398,-10.282 6.644,-16.73 -0.723,-2.66 -1.093,-5.256 -1.093,-7.769 v -8.53 c 0,-4.424 3.586,-8.01 8.01,-8.01 h 61.99 c 8.284,0 15,-6.716 15,-15 0,-8.284 -6.716,-15 -15,-15 z"
       fill="#ffaf40"
       id="path887" />
    <path
       d="m 377.287,185.66 h -39.121 c -8.284,0 -15,6.716 -15,15 0,8.284 6.716,15 15,15 h 39.121 c 8.284,0 15,-6.716 15,-15 0,-8.284 -6.715,-15 -15,-15 z"
       fill="#ffc751"
       id="path889" />
  </g>
</svg>
